<?xml version="1.0" encoding="utf-8"?>
<!-- Generator: Adobe Illustrator 23.0.0, SVG Export Plug-In . SVG Version: 6.00 Build 0)  -->
<svg version="1.1" id="Calque_1" xmlns="http://www.w3.org/2000/svg" xmlns:xlink="http://www.w3.org/1999/xlink" x="0px" y="0px"
	 viewBox="0 0 648 99" style="enable-background:new 0 0 648 99;" xml:space="preserve">
<style type="text/css">
	.st0{fill:#2D3033;}
	.st1{clip-path:url(#SVGID_2_);}
	.st2{fill:url(#SVGID_3_);}
	.st3{fill:url(#SVGID_4_);}
	.st4{fill:none;}
</style>
<g>
	<path class="st0" d="M184.7,63.6c-2.5,0-4.6-0.4-6.4-1.2c-1.8-0.8-3.2-2-4.1-3.6c-1-1.6-1.5-3.5-1.6-5.9c0-1.1,0-2.2,0-3.5
		c0-1.2,0-2.4,0-3.5c0.1-2.3,0.7-4.2,1.6-5.8c1-1.6,2.4-2.8,4.2-3.6c1.8-0.8,3.9-1.2,6.3-1.2c1.7,0,3.3,0.2,4.8,0.6
		c1.5,0.4,2.7,1.1,3.8,1.9c1.1,0.8,2,1.8,2.6,3c0.6,1.2,0.9,2.5,1,3.9c0,0.2,0,0.4-0.2,0.6c-0.2,0.2-0.4,0.2-0.6,0.2h-5.3
		c-0.3,0-0.6-0.1-0.8-0.2c-0.2-0.1-0.3-0.4-0.5-0.8c-0.4-1.4-1-2.3-1.8-2.8c-0.8-0.5-1.8-0.8-3-0.8c-1.4,0-2.6,0.4-3.4,1.2
		c-0.8,0.8-1.3,2.1-1.4,4c-0.1,2.1-0.1,4.3,0,6.6c0.1,1.9,0.5,3.2,1.4,4c0.8,0.8,2,1.2,3.4,1.2c1.2,0,2.2-0.3,3.1-0.8
		c0.8-0.5,1.4-1.5,1.8-2.8c0.1-0.4,0.3-0.7,0.5-0.8c0.2-0.1,0.5-0.2,0.8-0.2h5.3c0.2,0,0.4,0.1,0.6,0.2c0.2,0.2,0.2,0.4,0.2,0.6
		c0,1.5-0.3,2.8-1,3.9c-0.6,1.2-1.5,2.2-2.6,3c-1.1,0.8-2.4,1.5-3.8,1.9C188,63.4,186.4,63.6,184.7,63.6z"/>
	<path class="st0" d="M212.5,63.6c-2.4,0-4.5-0.4-6.2-1.2s-3.1-2-4.1-3.6c-1-1.6-1.5-3.7-1.5-6.1v-16c0-0.3,0.1-0.5,0.3-0.7
		c0.2-0.2,0.4-0.3,0.7-0.3h5.1c0.3,0,0.5,0.1,0.7,0.3c0.2,0.2,0.3,0.4,0.3,0.7v16c0,1.7,0.4,3,1.2,3.8c0.8,0.9,2,1.3,3.5,1.3
		c1.5,0,2.6-0.4,3.4-1.3c0.8-0.9,1.2-2.1,1.2-3.8v-16c0-0.3,0.1-0.5,0.3-0.7c0.2-0.2,0.4-0.3,0.7-0.3h5.1c0.3,0,0.5,0.1,0.7,0.3
		c0.2,0.2,0.3,0.4,0.3,0.7v16c0,2.5-0.5,4.5-1.5,6.1c-1,1.6-2.3,2.8-4.1,3.6C216.9,63.3,214.9,63.6,212.5,63.6z"/>
	<path class="st0" d="M230.4,63.2c-0.3,0-0.5-0.1-0.7-0.3c-0.2-0.2-0.3-0.4-0.3-0.7V36.7c0-0.3,0.1-0.5,0.3-0.7
		c0.2-0.2,0.4-0.3,0.7-0.3h10.7c3.4,0,6.1,0.8,8,2.3c1.9,1.6,2.9,3.8,2.9,6.6c0,1.9-0.4,3.4-1.3,4.7c-0.9,1.3-2.1,2.3-3.5,2.9
		l5.4,9.7c0.1,0.2,0.1,0.3,0.1,0.4c0,0.2-0.1,0.4-0.3,0.6c-0.2,0.2-0.4,0.3-0.6,0.3h-5.2c-0.5,0-0.9-0.1-1.1-0.4
		c-0.2-0.2-0.4-0.5-0.5-0.7l-4.5-8.6h-4v8.7c0,0.3-0.1,0.5-0.3,0.7c-0.2,0.2-0.4,0.3-0.7,0.3H230.4z M236.5,48h4.5
		c1.2,0,2.2-0.3,2.8-0.9c0.6-0.6,0.9-1.4,0.9-2.4c0-1-0.3-1.8-0.9-2.5c-0.6-0.6-1.5-0.9-2.8-0.9h-4.5V48z"/>
	<path class="st0" d="M257.6,63.2c-0.3,0-0.5-0.1-0.7-0.3c-0.2-0.2-0.3-0.4-0.3-0.7V36.7c0-0.3,0.1-0.5,0.3-0.7
		c0.2-0.2,0.4-0.3,0.7-0.3h10.7c3.4,0,6.1,0.8,8,2.3c1.9,1.6,2.9,3.8,2.9,6.6c0,1.9-0.4,3.4-1.3,4.7c-0.9,1.3-2.1,2.3-3.5,2.9
		l5.4,9.7c0.1,0.2,0.1,0.3,0.1,0.4c0,0.2-0.1,0.4-0.3,0.6c-0.2,0.2-0.4,0.3-0.6,0.3h-5.2c-0.5,0-0.9-0.1-1.1-0.4
		c-0.2-0.2-0.4-0.5-0.5-0.7l-4.5-8.6h-4v8.7c0,0.3-0.1,0.5-0.3,0.7c-0.2,0.2-0.4,0.3-0.7,0.3H257.6z M263.7,48h4.5
		c1.2,0,2.2-0.3,2.8-0.9c0.6-0.6,0.9-1.4,0.9-2.4c0-1-0.3-1.8-0.9-2.5c-0.6-0.6-1.5-0.9-2.8-0.9h-4.5V48z"/>
	<path class="st0" d="M284.7,63.2c-0.3,0-0.5-0.1-0.7-0.3c-0.2-0.2-0.3-0.4-0.3-0.7V36.7c0-0.3,0.1-0.5,0.3-0.7
		c0.2-0.2,0.4-0.3,0.7-0.3H303c0.3,0,0.5,0.1,0.7,0.3c0.2,0.2,0.3,0.4,0.3,0.7v3.7c0,0.3-0.1,0.5-0.3,0.7c-0.2,0.2-0.4,0.3-0.7,0.3
		h-12.5v5.3h11.7c0.3,0,0.5,0.1,0.7,0.3c0.2,0.2,0.3,0.4,0.3,0.7v3.4c0,0.3-0.1,0.5-0.3,0.7s-0.4,0.3-0.7,0.3h-11.7v5.5h12.8
		c0.3,0,0.5,0.1,0.7,0.3c0.2,0.2,0.3,0.4,0.3,0.7v3.7c0,0.3-0.1,0.5-0.3,0.7c-0.2,0.2-0.4,0.3-0.7,0.3H284.7z"/>
	<path class="st0" d="M309.8,63.2c-0.3,0-0.5-0.1-0.7-0.3c-0.2-0.2-0.3-0.4-0.3-0.7V36.7c0-0.3,0.1-0.5,0.3-0.7
		c0.2-0.2,0.4-0.3,0.7-0.3h4.2c0.4,0,0.8,0.1,1,0.3s0.3,0.3,0.4,0.5l9.6,15.1V36.7c0-0.3,0.1-0.5,0.3-0.7c0.2-0.2,0.4-0.3,0.7-0.3
		h4.7c0.3,0,0.5,0.1,0.7,0.3c0.2,0.2,0.3,0.4,0.3,0.7v25.5c0,0.3-0.1,0.5-0.3,0.7c-0.2,0.2-0.4,0.3-0.7,0.3h-4.2
		c-0.4,0-0.7-0.1-0.9-0.3s-0.3-0.4-0.4-0.4L315.5,48v14.3c0,0.3-0.1,0.5-0.3,0.7c-0.2,0.2-0.4,0.3-0.7,0.3H309.8z"/>
	<path class="st0" d="M348.3,63.6c-2.5,0-4.6-0.4-6.4-1.2c-1.8-0.8-3.2-2-4.1-3.6c-1-1.6-1.5-3.5-1.6-5.9c0-1.1,0-2.2,0-3.5
		c0-1.2,0-2.4,0-3.5c0.1-2.3,0.7-4.2,1.6-5.8c1-1.6,2.4-2.8,4.2-3.6c1.8-0.8,3.9-1.2,6.3-1.2c1.7,0,3.3,0.2,4.8,0.6
		c1.5,0.4,2.7,1.1,3.8,1.9c1.1,0.8,2,1.8,2.6,3c0.6,1.2,0.9,2.5,1,3.9c0,0.2,0,0.4-0.2,0.6c-0.2,0.2-0.4,0.2-0.6,0.2h-5.3
		c-0.3,0-0.6-0.1-0.8-0.2c-0.2-0.1-0.3-0.4-0.5-0.8c-0.4-1.4-1-2.3-1.8-2.8c-0.8-0.5-1.8-0.8-3-0.8c-1.4,0-2.6,0.4-3.4,1.2
		c-0.8,0.8-1.3,2.1-1.4,4c-0.1,2.1-0.1,4.3,0,6.6c0.1,1.9,0.5,3.2,1.4,4c0.8,0.8,2,1.2,3.4,1.2c1.2,0,2.2-0.3,3.1-0.8
		c0.8-0.5,1.4-1.5,1.8-2.8c0.1-0.4,0.3-0.7,0.5-0.8c0.2-0.1,0.5-0.2,0.8-0.2h5.3c0.2,0,0.4,0.1,0.6,0.2c0.2,0.2,0.2,0.4,0.2,0.6
		c0,1.5-0.3,2.8-1,3.9c-0.6,1.2-1.5,2.2-2.6,3c-1.1,0.8-2.4,1.5-3.8,1.9C351.6,63.4,350.1,63.6,348.3,63.6z"/>
	<path class="st0" d="M371.9,63.2c-0.3,0-0.5-0.1-0.7-0.3s-0.3-0.4-0.3-0.7v-8.4L361.8,37c0-0.1-0.1-0.2-0.1-0.2c0-0.1,0-0.1,0-0.2
		c0-0.2,0.1-0.4,0.3-0.6c0.2-0.2,0.4-0.3,0.6-0.3h4.9c0.4,0,0.7,0.1,0.9,0.3c0.2,0.2,0.4,0.4,0.5,0.5l5.6,10.1l5.7-10.1
		c0.1-0.2,0.2-0.3,0.5-0.5c0.2-0.2,0.5-0.3,0.9-0.3h4.9c0.2,0,0.4,0.1,0.6,0.3c0.2,0.2,0.2,0.4,0.2,0.6c0,0.1,0,0.2,0,0.2
		c0,0.1,0,0.1-0.1,0.2L378,53.8v8.4c0,0.3-0.1,0.5-0.3,0.7s-0.4,0.3-0.7,0.3H371.9z"/>
	<path class="st0" d="M409.1,63.6c-2.5,0-4.6-0.4-6.4-1.2c-1.8-0.8-3.2-2-4.1-3.6c-1-1.6-1.5-3.5-1.6-5.9c0-1.1,0-2.2,0-3.5
		c0-1.2,0-2.4,0-3.5c0.1-2.3,0.7-4.2,1.6-5.8c1-1.6,2.4-2.8,4.2-3.6c1.8-0.8,3.9-1.2,6.3-1.2c1.7,0,3.3,0.2,4.8,0.6
		c1.5,0.4,2.7,1.1,3.8,1.9c1.1,0.8,2,1.8,2.6,3c0.6,1.2,0.9,2.5,1,3.9c0,0.2,0,0.4-0.2,0.6c-0.2,0.2-0.4,0.2-0.6,0.2h-5.3
		c-0.3,0-0.6-0.1-0.8-0.2c-0.2-0.1-0.3-0.4-0.5-0.8c-0.4-1.4-1-2.3-1.8-2.8c-0.8-0.5-1.8-0.8-3-0.8c-1.4,0-2.6,0.4-3.4,1.2
		c-0.8,0.8-1.3,2.1-1.4,4c-0.1,2.1-0.1,4.3,0,6.6c0.1,1.9,0.5,3.2,1.4,4c0.8,0.8,2,1.2,3.4,1.2c1.2,0,2.2-0.3,3.1-0.8
		c0.8-0.5,1.4-1.5,1.8-2.8c0.1-0.4,0.3-0.7,0.5-0.8c0.2-0.1,0.5-0.2,0.8-0.2h5.3c0.2,0,0.4,0.1,0.6,0.2c0.2,0.2,0.2,0.4,0.2,0.6
		c0,1.5-0.3,2.8-1,3.9c-0.6,1.2-1.5,2.2-2.6,3c-1.1,0.8-2.4,1.5-3.8,1.9C412.4,63.4,410.8,63.6,409.1,63.6z"/>
	<path class="st0" d="M436.6,63.6c-2.4,0-4.5-0.4-6.3-1.2c-1.8-0.8-3.2-2-4.2-3.6c-1-1.6-1.5-3.6-1.6-5.9c0-1.1,0-2.3,0-3.4
		c0-1.1,0-2.3,0-3.4c0.1-2.4,0.7-4.3,1.7-5.9c1-1.6,2.4-2.8,4.2-3.6c1.8-0.8,3.9-1.2,6.2-1.2c2.4,0,4.5,0.4,6.2,1.2
		c1.8,0.8,3.2,2,4.2,3.6c1,1.6,1.6,3.6,1.6,5.9c0.1,1.1,0.1,2.3,0.1,3.4c0,1.1,0,2.3-0.1,3.4c-0.1,2.4-0.6,4.4-1.6,5.9
		c-1,1.6-2.4,2.8-4.2,3.6C441.1,63.2,439.1,63.6,436.6,63.6z M436.6,58c1.4,0,2.5-0.4,3.4-1.3c0.9-0.8,1.3-2.2,1.4-4
		c0.1-1.2,0.1-2.2,0.1-3.3s0-2.1-0.1-3.2c-0.1-1.2-0.3-2.2-0.7-3c-0.4-0.8-1-1.3-1.7-1.7c-0.7-0.4-1.5-0.5-2.4-0.5
		c-0.9,0-1.7,0.2-2.4,0.5c-0.7,0.4-1.3,0.9-1.7,1.7c-0.4,0.8-0.7,1.8-0.7,3c0,1.1,0,2.2,0,3.2s0,2.1,0,3.3c0.1,1.8,0.6,3.2,1.4,4
		C434.2,57.6,435.3,58,436.6,58z"/>
	<path class="st0" d="M454.4,63.2c-0.3,0-0.5-0.1-0.7-0.3c-0.2-0.2-0.3-0.4-0.3-0.7V36.7c0-0.3,0.1-0.5,0.3-0.7
		c0.2-0.2,0.4-0.3,0.7-0.3h4.2c0.4,0,0.8,0.1,1,0.3s0.3,0.3,0.4,0.5l9.6,15.1V36.7c0-0.3,0.1-0.5,0.3-0.7c0.2-0.2,0.4-0.3,0.7-0.3
		h4.7c0.3,0,0.5,0.1,0.7,0.3c0.2,0.2,0.3,0.4,0.3,0.7v25.5c0,0.3-0.1,0.5-0.3,0.7c-0.2,0.2-0.4,0.3-0.7,0.3h-4.2
		c-0.4,0-0.7-0.1-0.9-0.3s-0.3-0.4-0.4-0.4L460.1,48v14.3c0,0.3-0.1,0.5-0.3,0.7c-0.2,0.2-0.4,0.3-0.7,0.3H454.4z"/>
	<path class="st0" d="M489.5,63.2c-0.4,0-0.8-0.1-1.1-0.4c-0.3-0.2-0.4-0.5-0.5-0.8l-8-25.1c-0.1-0.1-0.1-0.2-0.1-0.4
		c0-0.2,0.1-0.4,0.3-0.6c0.2-0.2,0.4-0.3,0.6-0.3h4.9c0.4,0,0.7,0.1,1,0.4c0.2,0.2,0.4,0.5,0.4,0.7l5.6,18.1l5.5-18.1
		c0.1-0.2,0.2-0.4,0.5-0.7c0.2-0.2,0.5-0.4,1-0.4h4.9c0.2,0,0.4,0.1,0.6,0.3c0.2,0.2,0.3,0.4,0.3,0.6c0,0.1,0,0.2-0.1,0.4l-8,25.1
		c-0.1,0.3-0.2,0.6-0.5,0.8c-0.3,0.2-0.6,0.4-1.1,0.4H489.5z"/>
	<path class="st0" d="M509.8,63.2c-0.3,0-0.5-0.1-0.7-0.3c-0.2-0.2-0.3-0.4-0.3-0.7V36.7c0-0.3,0.1-0.5,0.3-0.7
		c0.2-0.2,0.4-0.3,0.7-0.3h18.3c0.3,0,0.5,0.1,0.7,0.3c0.2,0.2,0.3,0.4,0.3,0.7v3.7c0,0.3-0.1,0.5-0.3,0.7c-0.2,0.2-0.4,0.3-0.7,0.3
		h-12.5v5.3h11.7c0.3,0,0.5,0.1,0.7,0.3c0.2,0.2,0.3,0.4,0.3,0.7v3.4c0,0.3-0.1,0.5-0.3,0.7c-0.2,0.2-0.4,0.3-0.7,0.3h-11.7v5.5
		h12.8c0.3,0,0.5,0.1,0.7,0.3c0.2,0.2,0.3,0.4,0.3,0.7v3.7c0,0.3-0.1,0.5-0.3,0.7c-0.2,0.2-0.4,0.3-0.7,0.3H509.8z"/>
	<path class="st0" d="M534.9,63.2c-0.3,0-0.5-0.1-0.7-0.3c-0.2-0.2-0.3-0.4-0.3-0.7V36.7c0-0.3,0.1-0.5,0.3-0.7
		c0.2-0.2,0.4-0.3,0.7-0.3h10.7c3.4,0,6.1,0.8,8,2.3c1.9,1.6,2.9,3.8,2.9,6.6c0,1.9-0.4,3.4-1.3,4.7c-0.9,1.3-2.1,2.3-3.5,2.9
		L557,62c0.1,0.2,0.1,0.3,0.1,0.4c0,0.2-0.1,0.4-0.3,0.6c-0.2,0.2-0.4,0.3-0.6,0.3h-5.2c-0.5,0-0.9-0.1-1.1-0.4
		c-0.2-0.2-0.4-0.5-0.5-0.7l-4.5-8.6h-4v8.7c0,0.3-0.1,0.5-0.3,0.7s-0.4,0.3-0.7,0.3H534.9z M541,48h4.5c1.2,0,2.2-0.3,2.8-0.9
		c0.6-0.6,0.9-1.4,0.9-2.4c0-1-0.3-1.8-0.9-2.5c-0.6-0.6-1.5-0.9-2.8-0.9H541V48z"/>
	<path class="st0" d="M567.8,63.2c-0.3,0-0.5-0.1-0.7-0.3s-0.3-0.4-0.3-0.7V41.9h-7c-0.3,0-0.5-0.1-0.7-0.3
		c-0.2-0.2-0.3-0.4-0.3-0.7v-4.2c0-0.3,0.1-0.5,0.3-0.7c0.2-0.2,0.4-0.3,0.7-0.3H581c0.3,0,0.5,0.1,0.7,0.3c0.2,0.2,0.3,0.4,0.3,0.7
		v4.2c0,0.3-0.1,0.5-0.3,0.7c-0.2,0.2-0.4,0.3-0.7,0.3h-7v20.3c0,0.3-0.1,0.5-0.3,0.7c-0.2,0.2-0.4,0.3-0.7,0.3H567.8z"/>
	<path class="st0" d="M586.5,63.2c-0.3,0-0.5-0.1-0.7-0.3c-0.2-0.2-0.3-0.4-0.3-0.7V36.7c0-0.3,0.1-0.5,0.3-0.7
		c0.2-0.2,0.4-0.3,0.7-0.3h18.3c0.3,0,0.5,0.1,0.7,0.3c0.2,0.2,0.3,0.4,0.3,0.7v3.7c0,0.3-0.1,0.5-0.3,0.7c-0.2,0.2-0.4,0.3-0.7,0.3
		h-12.5v5.3H604c0.3,0,0.5,0.1,0.7,0.3c0.2,0.2,0.3,0.4,0.3,0.7v3.4c0,0.3-0.1,0.5-0.3,0.7c-0.2,0.2-0.4,0.3-0.7,0.3h-11.7v5.5h12.8
		c0.3,0,0.5,0.1,0.7,0.3c0.2,0.2,0.3,0.4,0.3,0.7v3.7c0,0.3-0.1,0.5-0.3,0.7c-0.2,0.2-0.4,0.3-0.7,0.3H586.5z"/>
	<path class="st0" d="M611.6,63.2c-0.3,0-0.5-0.1-0.7-0.3c-0.2-0.2-0.3-0.4-0.3-0.7V36.7c0-0.3,0.1-0.5,0.3-0.7
		c0.2-0.2,0.4-0.3,0.7-0.3h10.7c3.4,0,6.1,0.8,8,2.3c1.9,1.6,2.9,3.8,2.9,6.6c0,1.9-0.4,3.4-1.3,4.7c-0.9,1.3-2.1,2.3-3.5,2.9
		l5.4,9.7c0.1,0.2,0.1,0.3,0.1,0.4c0,0.2-0.1,0.4-0.3,0.6c-0.2,0.2-0.4,0.3-0.6,0.3h-5.2c-0.5,0-0.9-0.1-1.1-0.4
		c-0.2-0.2-0.4-0.5-0.5-0.7l-4.5-8.6h-4v8.7c0,0.3-0.1,0.5-0.3,0.7s-0.4,0.3-0.7,0.3H611.6z M617.7,48h4.5c1.2,0,2.2-0.3,2.8-0.9
		c0.6-0.6,0.9-1.4,0.9-2.4c0-1-0.3-1.8-0.9-2.5c-0.6-0.6-1.5-0.9-2.8-0.9h-4.5V48z"/>
</g>
<g>
	<defs>
		<path id="SVGID_1_" d="M87.1,0c-6.7,0-13,1.3-18.8,3.7C62.5,1.3,56.2,0,49.5,0C22.2,0,0,22.2,0,49.5C0,76.8,22.2,99,49.5,99
			c6.7,0,13-1.3,18.8-3.7c5.8,2.4,12.1,3.7,18.8,3.7c27.3,0,49.5-22.2,49.5-49.5C136.6,22.2,114.4,0,87.1,0z"/>
	</defs>
	<clipPath id="SVGID_2_">
		<use xlink:href="#SVGID_1_"  style="overflow:visible;"/>
	</clipPath>
	<g class="st1">
		<g>
			<linearGradient id="SVGID_3_" gradientUnits="userSpaceOnUse" x1="0" y1="49.5" x2="68.2898" y2="49.5">
				<stop  offset="0" style="stop-color:#5389F0"/>
				<stop  offset="1" style="stop-color:#5389F0"/>
			</linearGradient>
			<path class="st2" d="M37.6,49.5c0-20.7,12.7-38.4,30.7-45.8C62.5,1.3,56.2,0,49.5,0C22.2,0,0,22.2,0,49.5S22.2,99,49.5,99
				c6.7,0,13-1.3,18.8-3.7C50.3,87.9,37.6,70.2,37.6,49.5z"/>
		</g>
		<g>
			<linearGradient id="SVGID_4_" gradientUnits="userSpaceOnUse" x1="68.2898" y1="49.5" x2="136.5796" y2="49.5">
				<stop  offset="0" style="stop-color:#53A1F0"/>
				<stop  offset="1" style="stop-color:#53A1F0"/>
			</linearGradient>
			<path class="st3" d="M87.1,0c-6.7,0-13,1.3-18.8,3.7C86.3,11.1,99,28.8,99,49.5c0,20.7-12.7,38.4-30.7,45.8
				c5.8,2.4,12.1,3.7,18.8,3.7c27.3,0,49.5-22.2,49.5-49.5S114.4,0,87.1,0z"/>
		</g>
		<g>
			<ellipse class="st4" cx="68.3" cy="49.5" rx="30.7" ry="45.8"/>
		</g>
	</g>
</g>
</svg>
